<svg width="32" height="32" viewBox="0 0 32 32" fill="none" xmlns="http://www.w3.org/2000/svg">
<rect width="32" height="32" rx="10" fill="#FB4F4F"/>
<path d="M11.5 15C11.697 15 11.892 15.0388 12.074 15.1142C12.256 15.1896 12.4214 15.3001 12.5607 15.4393C12.6999 15.5786 12.8104 15.744 12.8858 15.926C12.9612 16.108 13 16.303 13 16.5C13 16.697 12.9612 16.892 12.8858 17.074C12.8104 17.256 12.6999 17.4214 12.5607 17.5607C12.4214 17.6999 12.256 17.8104 12.074 17.8858C11.892 17.9612 11.697 18 11.5 18C11.1022 18 10.7206 17.842 10.4393 17.5607C10.158 17.2794 10 16.8978 10 16.5C10 16.1022 10.158 15.7206 10.4393 15.4393C10.7206 15.158 11.1022 15 11.5 15ZM16 15C16.197 15 16.392 15.0388 16.574 15.1142C16.756 15.1896 16.9214 15.3001 17.0607 15.4393C17.1999 15.5786 17.3104 15.744 17.3858 15.926C17.4612 16.108 17.5 16.303 17.5 16.5C17.5 16.697 17.4612 16.892 17.3858 17.074C17.3104 17.256 17.1999 17.4214 17.0607 17.5607C16.9214 17.6999 16.756 17.8104 16.574 17.8858C16.392 17.9612 16.197 18 16 18C15.6022 18 15.2206 17.842 14.9393 17.5607C14.658 17.2794 14.5 16.8978 14.5 16.5C14.5 16.1022 14.658 15.7206 14.9393 15.4393C15.2206 15.158 15.6022 15 16 15ZM20.5 15C20.697 15 20.892 15.0388 21.074 15.1142C21.256 15.1896 21.4214 15.3001 21.5607 15.4393C21.6999 15.5786 21.8104 15.744 21.8858 15.926C21.9612 16.108 22 16.303 22 16.5C22 16.697 21.9612 16.892 21.8858 17.074C21.8104 17.256 21.6999 17.4214 21.5607 17.5607C21.4214 17.6999 21.256 17.8104 21.074 17.8858C20.892 17.9612 20.697 18 20.5 18C20.1022 18 19.7206 17.842 19.4393 17.5607C19.158 17.2794 19 16.8978 19 16.5C19 16.1022 19.158 15.7206 19.4393 15.4393C19.7206 15.158 20.1022 15 20.5 15Z" fill="white"/>
</svg>
