<svg width="32" height="32" viewBox="0 0 32 32" fill="none" xmlns="http://www.w3.org/2000/svg">
<rect width="32" height="32" rx="10" fill="#FB4F4F"/>
<path d="M12.9019 20.1429L16.2857 21.9886V24.1905H10.619C9.72048 24.1905 9 23.47 9 22.5714V9.61905C9 9.18965 9.17058 8.77784 9.47421 8.47421C9.77784 8.17058 10.1896 8 10.619 8H11.4286V13.6667L13.4524 12.4524L15.4762 13.6667V8H20.3333C20.7627 8 21.1745 8.17058 21.4782 8.47421C21.7818 8.77784 21.9524 9.18965 21.9524 9.61905V16.5324L20.7381 15.8686L12.9019 20.1429ZM25.1905 20.1429L20.7381 17.7143L16.2857 20.1429L20.7381 22.5714L25.1905 20.1429ZM17.9048 21.8348V23.4538L20.7381 25L23.5714 23.4538V21.8348L20.7381 23.381L17.9048 21.8348Z" fill="white"/>
</svg>
