<svg width="32" height="32" viewBox="0 0 32 32" fill="none" xmlns="http://www.w3.org/2000/svg">
<rect width="32" height="32" rx="10" fill="#FB4F4F"/>
<path d="M15.1667 23C15.1667 23 14 23 14 21.8333C14 20.6667 15.1667 17.1667 19.8333 17.1667C24.5 17.1667 25.6667 20.6667 25.6667 21.8333C25.6667 23 24.5 23 24.5 23H15.1667ZM19.8333 16C20.7616 16 21.6518 15.6313 22.3082 14.9749C22.9646 14.3185 23.3333 13.4283 23.3333 12.5C23.3333 11.5717 22.9646 10.6815 22.3082 10.0251C21.6518 9.36875 20.7616 9 19.8333 9C18.9051 9 18.0148 9.36875 17.3585 10.0251C16.7021 10.6815 16.3333 11.5717 16.3333 12.5C16.3333 13.4283 16.7021 14.3185 17.3585 14.9749C18.0148 15.6313 18.9051 16 19.8333 16ZM13.0853 23C12.9124 22.6358 12.8261 22.2365 12.8333 21.8333C12.8333 20.2525 13.6267 18.625 15.092 17.4933C14.3606 17.268 13.5986 17.1578 12.8333 17.1667C8.16667 17.1667 7 20.6667 7 21.8333C7 23 8.16667 23 8.16667 23H13.0853ZM12.25 16C13.0235 16 13.7654 15.6927 14.3124 15.1457C14.8594 14.5987 15.1667 13.8569 15.1667 13.0833C15.1667 12.3098 14.8594 11.5679 14.3124 11.0209C13.7654 10.474 13.0235 10.1667 12.25 10.1667C11.4765 10.1667 10.7346 10.474 10.1876 11.0209C9.64062 11.5679 9.33333 12.3098 9.33333 13.0833C9.33333 13.8569 9.64062 14.5987 10.1876 15.1457C10.7346 15.6927 11.4765 16 12.25 16Z" fill="white"/>
</svg>
