<svg width="1440" height="1429" viewBox="0 0 1440 1429" fill="none" xmlns="http://www.w3.org/2000/svg">
<g clip-path="url(#clip0_2001_1596)">
<rect width="1440" height="1429" fill="white"/>
<g filter="url(#filter0_f_2001_1596)">
<path d="M632.744 242.188C573.723 264.358 588.424 339.453 603.152 374.229C629.096 472.446 742.192 671.728 885.286 697.811C1028.38 723.893 1141.48 509.938 1207.15 428.024C1272.82 346.109 1330.38 142.342 1125.67 222.219C920.958 302.096 706.52 214.476 632.744 242.188Z" fill="#FF5B5B" fill-opacity="0.5"/>
</g>
<path d="M166.075 -86.0663C14.0827 -29.2113 51.9416 163.371 89.8702 252.555C156.68 504.433 447.929 1015.5 816.427 1082.39C1184.93 1149.27 1476.18 600.583 1645.29 390.512C1814.4 180.441 1962.63 -342.123 1435.46 -137.278C908.291 67.5675 356.066 -157.135 166.075 -86.0663Z" stroke="black" stroke-opacity="0.05" stroke-width="2"/>
<path d="M21.8798 -188.434C-158.84 -120.763 -113.825 108.459 -68.7282 214.611C10.7094 514.409 357.005 1122.7 795.151 1202.32C1233.3 1281.93 1579.59 628.851 1780.67 378.814C1981.74 128.777 2158 -493.206 1531.19 -249.389C904.377 -5.57135 247.779 -273.024 21.8798 -188.434Z" stroke="black" stroke-opacity="0.05" stroke-width="2"/>
<path d="M-173.002 -324.643C-392.547 -242.579 -337.862 35.394 -283.076 164.122C-186.573 527.682 234.12 1265.35 766.395 1361.9C1298.67 1458.44 1719.36 666.464 1963.64 363.249C2207.91 60.0333 2422.03 -694.234 1660.56 -398.561C899.087 -102.888 101.428 -427.223 -173.002 -324.643Z" stroke="black" stroke-opacity="0.05" stroke-width="2"/>
<path d="M293.792 0.22731C167.045 47.964 198.616 209.661 230.245 284.542C285.958 496.024 528.832 925.125 836.125 981.286C1143.42 1037.45 1386.29 576.754 1527.32 400.373C1668.34 223.993 1791.95 -214.763 1352.34 -42.7709C912.731 129.222 452.227 -59.4436 293.792 0.22731Z" stroke="black" stroke-opacity="0.05" stroke-width="2"/>
<path d="M393.544 72.9847C286.471 113.034 313.141 248.689 339.86 311.511C386.926 488.934 592.101 848.929 851.696 896.045C1111.29 943.161 1316.47 556.662 1435.6 408.688C1554.74 260.713 1659.16 -107.382 1287.79 36.9113C916.411 181.205 527.387 22.9237 393.544 72.9847Z" stroke="black" stroke-opacity="0.05" stroke-width="2"/>
<path d="M527.253 166.046C446.817 196.262 466.852 298.609 486.924 346.006C522.281 479.865 679.851 764.632 871.426 787.016C915.744 792.194 958.243 782.053 998.5 762.878C1022.13 751.621 1045 738.561 1067 720.161C1169.53 634.426 1253.43 489.974 1310.07 419.323C1399.56 307.681 1478.01 29.9662 1199.03 138.83C920.041 247.695 627.798 128.277 527.253 166.046Z" stroke="black" stroke-opacity="0.05" stroke-width="2"/>
<path d="M629.374 238.804C569.483 261.331 584.401 337.638 599.346 372.975C625.672 472.775 740.437 675.272 885.642 701.775C1030.85 728.278 1145.61 510.872 1212.25 427.637C1278.89 344.401 1337.3 137.348 1129.57 218.513C921.84 299.678 704.239 210.645 629.374 238.804Z" stroke="black" stroke-opacity="0.05" stroke-width="2"/>
<path d="M739.487 315.791C701.533 330.184 710.987 378.935 720.458 401.512C737.141 465.273 809.87 594.646 901.889 611.579C993.908 628.511 1066.64 489.613 1108.87 436.435C1151.1 383.256 1188.11 250.972 1056.47 302.828C924.829 354.683 786.931 297.801 739.487 315.791Z" stroke="black" stroke-opacity="0.05" stroke-width="2"/>
<path d="M858.339 399.547C844.063 405.089 847.619 423.863 851.181 432.557C857.457 457.111 884.814 506.932 919.426 513.453C954.039 519.973 981.396 466.485 997.28 446.006C1013.16 425.527 1027.09 374.586 977.572 394.555C928.055 414.524 876.185 392.619 858.339 399.547Z" stroke="black" stroke-opacity="0.05" stroke-width="2"/>
<path d="M804.157 361.476C779.086 371.041 785.331 403.441 791.587 418.446C802.607 460.821 850.648 546.802 911.431 558.055C972.215 569.309 1020.26 476.997 1048.15 441.655C1076.05 406.313 1100.5 318.398 1013.54 352.861C926.584 387.323 835.495 349.52 804.157 361.476Z" stroke="black" stroke-opacity="0.05" stroke-width="2"/>
<path d="M967.335 425.773C973.777 428.545 972.172 437.932 970.564 442.279C967.733 454.556 955.389 479.466 939.771 482.726C924.153 485.987 911.809 459.242 904.642 449.003C897.474 438.764 891.192 413.293 913.535 423.277C935.878 433.262 959.282 422.309 967.335 425.773Z" stroke="black" stroke-opacity="0.05" stroke-width="2"/>
</g>
<defs>
<filter id="filter0_f_2001_1596" x="190" y="-196" width="1478" height="1296" filterUnits="userSpaceOnUse" color-interpolation-filters="sRGB">
<feFlood flood-opacity="0" result="BackgroundImageFix"/>
<feBlend mode="normal" in="SourceGraphic" in2="BackgroundImageFix" result="shape"/>
<feGaussianBlur stdDeviation="200" result="effect1_foregroundBlur_2001_1596"/>
</filter>
<clipPath id="clip0_2001_1596">
<rect width="1440" height="1429" fill="white"/>
</clipPath>
</defs>
</svg>
