<svg width="32" height="32" viewBox="0 0 32 32" fill="none" xmlns="http://www.w3.org/2000/svg">
<rect width="32" height="32" rx="10" fill="#FB4F4F"/>
<path fill-rule="evenodd" clip-rule="evenodd" d="M15 10H18C20.8282 10 22.2427 10 23.121 10.879C24 11.7572 24 13.1718 24 16C24 18.8282 24 20.2427 23.121 21.121C22.2427 22 20.8282 22 18 22H15C12.1718 22 10.7572 22 9.879 21.121C9 20.2427 9 18.8282 9 16C9 13.1718 9 11.7572 9.879 10.879C10.7572 10 12.1718 10 15 10ZM17.4375 13.75C17.4375 13.6008 17.4968 13.4577 17.6023 13.3523C17.7077 13.2468 17.8508 13.1875 18 13.1875H21.75C21.8992 13.1875 22.0423 13.2468 22.1477 13.3523C22.2532 13.4577 22.3125 13.6008 22.3125 13.75C22.3125 13.8992 22.2532 14.0423 22.1477 14.1477C22.0423 14.2532 21.8992 14.3125 21.75 14.3125H18C17.8508 14.3125 17.7077 14.2532 17.6023 14.1477C17.4968 14.0423 17.4375 13.8992 17.4375 13.75ZM18.1875 16C18.1875 15.8508 18.2468 15.7077 18.3523 15.6023C18.4577 15.4968 18.6008 15.4375 18.75 15.4375H21.75C21.8992 15.4375 22.0423 15.4968 22.1477 15.6023C22.2532 15.7077 22.3125 15.8508 22.3125 16C22.3125 16.1492 22.2532 16.2923 22.1477 16.3977C22.0423 16.5032 21.8992 16.5625 21.75 16.5625H18.75C18.6008 16.5625 18.4577 16.5032 18.3523 16.3977C18.2468 16.2923 18.1875 16.1492 18.1875 16ZM18.9375 18.25C18.9375 18.1008 18.9968 17.9577 19.1023 17.8523C19.2077 17.7468 19.3508 17.6875 19.5 17.6875H21.75C21.8992 17.6875 22.0423 17.7468 22.1477 17.8523C22.2532 17.9577 22.3125 18.1008 22.3125 18.25C22.3125 18.3992 22.2532 18.5423 22.1477 18.6477C22.0423 18.7532 21.8992 18.8125 21.75 18.8125H19.5C19.3508 18.8125 19.2077 18.7532 19.1023 18.6477C18.9968 18.5423 18.9375 18.3992 18.9375 18.25ZM15.75 13.75C15.75 14.1478 15.592 14.5294 15.3107 14.8107C15.0294 15.092 14.6478 15.25 14.25 15.25C13.8522 15.25 13.4706 15.092 13.1893 14.8107C12.908 14.5294 12.75 14.1478 12.75 13.75C12.75 13.3522 12.908 12.9706 13.1893 12.6893C13.4706 12.408 13.8522 12.25 14.25 12.25C14.6478 12.25 15.0294 12.408 15.3107 12.6893C15.592 12.9706 15.75 13.3522 15.75 13.75ZM14.25 19.75C17.25 19.75 17.25 19.0787 17.25 18.25C17.25 17.4212 15.9075 16.75 14.25 16.75C12.5925 16.75 11.25 17.4212 11.25 18.25C11.25 19.0787 11.25 19.75 14.25 19.75Z" fill="white"/>
</svg>
