<svg width="1440" height="1240" viewBox="0 0 1440 1240" fill="none" xmlns="http://www.w3.org/2000/svg">
<g clip-path="url(#clip0_2004_1267)">
<rect width="1440" height="1240" fill="white"/>
<path d="M160.327 -17.0663C7.98666 39.7887 45.9324 232.371 83.9478 321.555C150.911 573.433 442.827 1084.5 812.17 1151.39C1181.51 1218.27 1473.43 669.583 1642.93 459.512C1812.43 249.441 1961 -273.123 1432.62 -68.2776C904.244 136.568 350.753 -88.1351 160.327 -17.0663Z" stroke="black" stroke-opacity="0.03" stroke-width="2"/>
<path d="M16.132 -119.434C-164.936 -51.7626 -119.835 177.459 -74.6506 283.611C4.94005 583.409 351.903 1191.7 790.893 1271.32C1229.88 1350.93 1576.85 697.851 1778.31 447.814C1979.77 197.777 2156.36 -424.206 1528.35 -180.389C900.33 63.4286 242.467 -204.024 16.132 -119.434Z" stroke="black" stroke-opacity="0.03" stroke-width="2"/>
<path d="M-178.75 -255.643C-398.643 -173.579 -343.871 104.394 -288.999 233.122C-192.342 596.682 229.018 1334.35 762.137 1430.9C1295.26 1527.44 1716.62 735.464 1961.28 432.249C2205.94 129.033 2420.4 -625.234 1657.72 -329.561C895.04 -33.8884 96.1159 -358.223 -178.75 -255.643Z" stroke="black" stroke-opacity="0.03" stroke-width="2"/>
<path d="M288.045 69.2273C160.949 116.964 192.606 278.661 224.322 353.542C280.189 565.024 523.73 994.125 831.867 1050.29C1140 1106.45 1383.55 645.754 1524.96 469.373C1666.37 292.993 1790.32 -145.763 1349.5 26.2291C908.683 198.222 446.914 9.55639 288.045 69.2273Z" stroke="black" stroke-opacity="0.03" stroke-width="2"/>
<path d="M387.797 141.985C280.375 182.034 307.132 317.689 333.938 380.511C381.157 557.934 586.999 917.929 847.438 965.045C1107.88 1012.16 1313.72 625.662 1433.24 477.688C1552.76 329.713 1657.53 -38.3821 1284.95 105.911C912.364 250.205 522.074 91.9237 387.797 141.985Z" stroke="black" stroke-opacity="0.03" stroke-width="2"/>
<path d="M521.505 235.046C440.721 265.262 460.843 367.609 481.002 415.006C516.512 548.865 671.311 820.469 867.168 856.016C1063.02 891.564 1217.82 599.964 1307.71 488.323C1397.59 376.681 1476.38 98.9662 1196.19 207.83C915.993 316.695 622.485 197.277 521.505 235.046Z" stroke="black" stroke-opacity="0.03" stroke-width="2"/>
<path d="M623.627 307.804C563.387 330.331 578.392 406.638 593.424 441.975C619.903 541.775 735.335 744.272 881.384 770.775C1027.43 797.278 1142.86 579.872 1209.89 496.637C1276.91 413.401 1335.67 206.348 1126.73 287.513C917.792 368.678 698.926 279.645 623.627 307.804Z" stroke="black" stroke-opacity="0.03" stroke-width="2"/>
<path d="M733.739 384.791C695.437 399.184 704.977 447.935 714.535 470.512C731.372 534.273 804.768 663.646 897.631 680.579C990.494 697.511 1063.89 558.613 1106.51 505.435C1149.12 452.256 1186.48 319.972 1053.63 371.828C920.781 423.683 781.618 366.801 733.739 384.791Z" stroke="black" stroke-opacity="0.03" stroke-width="2"/>
<path d="M852.591 468.547C837.967 474.089 841.61 492.863 845.259 501.557C851.687 526.111 879.711 575.932 915.168 582.453C950.625 588.973 978.649 535.485 994.921 515.006C1011.19 494.527 1025.46 443.586 974.732 463.555C924.007 483.524 870.872 461.619 852.591 468.547Z" stroke="black" stroke-opacity="0.03" stroke-width="2"/>
<path d="M798.409 430.476C772.99 440.041 779.321 472.441 785.664 487.446C796.838 529.821 845.546 615.802 907.173 627.055C968.801 638.309 1017.51 545.997 1045.79 510.655C1074.07 475.313 1098.86 387.398 1010.7 421.861C922.537 456.323 830.183 418.52 798.409 430.476Z" stroke="black" stroke-opacity="0.03" stroke-width="2"/>
<path d="M961.083 494.773C967.873 497.545 966.181 506.932 964.487 511.279C961.502 523.556 948.491 548.466 932.029 551.726C915.567 554.987 902.556 528.242 895.001 518.003C887.446 507.764 880.824 482.293 904.375 492.277C927.925 502.262 952.595 491.309 961.083 494.773Z" stroke="black" stroke-opacity="0.03" stroke-width="2"/>
</g>
<defs>
<clipPath id="clip0_2004_1267">
<rect width="1440" height="1240" fill="white"/>
</clipPath>
</defs>
</svg>
