<svg width="32" height="32" viewBox="0 0 32 32" fill="none" xmlns="http://www.w3.org/2000/svg">
<rect width="32" height="32" rx="10" fill="#FB4F4F"/>
<path fill-rule="evenodd" clip-rule="evenodd" d="M16.193 14.8535C16.3559 14.8535 16.5122 14.9183 16.6275 15.0335C16.7427 15.1487 16.8074 15.305 16.8074 15.468V16.0824H17.4219C17.5849 16.0824 17.7412 16.1472 17.8564 16.2624C17.9716 16.3776 18.0364 16.5339 18.0364 16.6969C18.0364 16.8599 17.9716 17.0161 17.8564 17.1314C17.7412 17.2466 17.5849 17.3113 17.4219 17.3113H16.8074V17.9258C16.8074 18.0888 16.7427 18.2451 16.6275 18.3603C16.5122 18.4755 16.3559 18.5403 16.193 18.5403C16.03 18.5403 15.8737 18.4755 15.7585 18.3603C15.6433 18.2451 15.5785 18.0888 15.5785 17.9258V17.3113H14.9641C14.8011 17.3113 14.6448 17.2466 14.5296 17.1314C14.4143 17.0161 14.3496 16.8599 14.3496 16.6969C14.3496 16.5339 14.4143 16.3776 14.5296 16.2624C14.6448 16.1472 14.8011 16.0824 14.9641 16.0824H15.5785V15.468C15.5785 15.305 15.6433 15.1487 15.7585 15.0335C15.8737 14.9183 16.03 14.8535 16.193 14.8535Z" fill="white"/>
<path fill-rule="evenodd" clip-rule="evenodd" d="M16.1502 6.25C15.4136 6.25 14.8 6.25 14.3133 6.31554C13.7988 6.38436 13.3343 6.53675 12.9615 6.90952C12.588 7.28311 12.4356 7.74764 12.3667 8.26133C12.3012 8.7488 12.3012 9.36325 12.3012 10.099V10.1629C10.6454 10.2169 9.65084 10.4103 8.96019 11.1018C8 12.0611 8 13.6063 8 16.6958C8 19.7853 8 21.3304 8.96019 22.2898C9.91957 23.25 11.4647 23.25 14.5542 23.25H17.8313C20.9208 23.25 22.466 23.25 23.4253 22.2898C24.3855 21.3304 24.3855 19.7853 24.3855 16.6958C24.3855 13.6063 24.3855 12.0611 23.4253 11.1018C22.7347 10.4103 21.7401 10.2169 20.0843 10.1629V10.099C20.0843 9.36325 20.0843 8.7488 20.0188 8.26214C19.95 7.74764 19.7976 7.28311 19.424 6.91034C19.0512 6.53675 18.5867 6.38436 18.0722 6.31554C17.5855 6.25 16.9711 6.25 16.2354 6.25H16.1502ZM18.8554 10.1432V10.1416C18.8554 9.35178 18.8538 8.82089 18.8013 8.42518C18.7497 8.04749 18.6621 7.88528 18.5556 7.77877C18.4491 7.67227 18.2868 7.5846 17.9083 7.53299C17.5134 7.48055 16.9826 7.47892 16.1928 7.47892C15.403 7.47892 14.8721 7.48055 14.4764 7.53381C14.0987 7.5846 13.9365 7.67227 13.83 7.77959C13.7235 7.8861 13.6358 8.04749 13.5842 8.42518C13.5326 8.82089 13.5301 9.35178 13.5301 10.1416V10.1432C13.8513 10.1416 14.1921 10.1416 14.5542 10.1416H17.8313C18.1934 10.1416 18.5343 10.1416 18.8554 10.1432ZM19.4699 16.6958C19.4699 17.5649 19.1246 18.3985 18.51 19.013C17.8955 19.6276 17.0619 19.9729 16.1928 19.9729C15.3236 19.9729 14.4901 19.6276 13.8755 19.013C13.2609 18.3985 12.9157 17.5649 12.9157 16.6958C12.9157 15.8266 13.2609 14.9931 13.8755 14.3785C14.4901 13.7639 15.3236 13.4187 16.1928 13.4187C17.0619 13.4187 17.8955 13.7639 18.51 14.3785C19.1246 14.9931 19.4699 15.8266 19.4699 16.6958Z" fill="white"/>
</svg>
