<svg width="48" height="48" viewBox="0 0 48 48" fill="none" xmlns="http://www.w3.org/2000/svg">
<path d="M27.3744 33.2552C27.3746 33.907 27.1285 34.5347 26.6853 35.0126C26.2422 35.4905 25.6348 35.7832 24.9849 35.8321L24.7911 35.8385H22.2078C21.556 35.8388 20.9283 35.5926 20.4504 35.1494C19.9725 34.7063 19.6798 34.0989 19.6309 33.449L19.6244 33.2552H27.3744ZM23.4994 11.2969C25.8438 11.2968 28.0965 12.2074 29.7824 13.8364C31.4683 15.4654 32.4556 17.6856 32.5359 20.0285L32.5411 20.3385V25.2004L34.8945 29.9072C34.9972 30.1126 35.0486 30.3398 35.0443 30.5694C35.04 30.799 34.9801 31.0241 34.8698 31.2255C34.7595 31.4268 34.6019 31.5985 34.4108 31.7257C34.2196 31.8529 34.0004 31.9318 33.7721 31.9558L33.6235 31.9635H13.3754C13.1457 31.9636 12.9194 31.908 12.7159 31.8014C12.5124 31.6949 12.3377 31.5406 12.2069 31.3517C12.0761 31.1629 11.9931 30.9452 11.9649 30.7172C11.9366 30.4893 11.9641 30.2579 12.0449 30.0428L12.1044 29.9072L14.4578 25.2004V20.3385C14.4578 17.9405 15.4104 15.6408 17.106 13.9451C18.8017 12.2495 21.1014 11.2969 23.4994 11.2969Z" fill="black" fill-opacity="0.6"/>
<circle cx="15" cy="12" r="7.5" fill="white" stroke="#FB4F4F" stroke-width="3"/>
</svg>
