<svg width="32" height="32" viewBox="0 0 32 32" fill="none" xmlns="http://www.w3.org/2000/svg">
<rect width="32" height="32" rx="10" fill="#FB4F4F"/>
<path d="M16.4483 7C16.2837 7 16.1258 7.06539 16.0094 7.1818C15.893 7.2982 15.8276 7.45607 15.8276 7.62069V10.1034C15.8276 10.2681 15.893 10.4259 16.0094 10.5423C16.1258 10.6587 16.2837 10.7241 16.4483 10.7241C16.6129 10.7241 16.7708 10.6587 16.8872 10.5423C17.0036 10.4259 17.069 10.2681 17.069 10.1034V7.62069C17.069 7.45607 17.0036 7.2982 16.8872 7.1818C16.7708 7.06539 16.6129 7 16.4483 7ZM22.4671 9.05014C22.3465 8.92957 22.183 8.86184 22.0124 8.86184C21.8419 8.86184 21.6784 8.92957 21.5578 9.05014L19.7398 10.8688C19.6772 10.9278 19.6272 10.9988 19.5925 11.0776C19.5579 11.1563 19.5394 11.2412 19.5382 11.3272C19.537 11.4132 19.553 11.4986 19.5854 11.5783C19.6178 11.658 19.6658 11.7304 19.7266 11.7912C19.7875 11.852 19.8599 11.9 19.9396 11.9323C20.0194 11.9647 20.1048 11.9806 20.1908 11.9794C20.2768 11.9781 20.3617 11.9595 20.4404 11.9249C20.5191 11.8902 20.5901 11.84 20.6491 11.7774L22.4671 9.95883C22.5875 9.83826 22.6551 9.67485 22.6551 9.50448C22.6551 9.33411 22.5875 9.1707 22.4671 9.05014ZM11.3388 9.05014C11.2176 8.93215 11.0549 8.86661 10.8858 8.86772C10.7168 8.86882 10.5549 8.93648 10.4354 9.05604C10.3158 9.17561 10.2481 9.33745 10.247 9.50653C10.2459 9.67562 10.3115 9.83833 10.4294 9.95945L12.2481 11.7774C12.3698 11.8922 12.5315 11.955 12.6987 11.9525C12.866 11.95 13.0257 11.8824 13.144 11.7641C13.2622 11.6457 13.3297 11.486 13.3321 11.3187C13.3345 11.1514 13.2716 10.9898 13.1568 10.8681L11.3388 9.05014ZM11.4623 20.0345L12.6397 14.9883C12.8404 14.1287 13.3259 13.3623 14.0174 12.8137C14.7089 12.265 15.5656 11.9665 16.4483 11.9665C17.331 11.9665 18.1877 12.265 18.8791 12.8137C19.5706 13.3623 20.0562 14.1287 20.2568 14.9883L21.4343 20.0345H21.9507C22.9537 20.0345 23.8966 20.8228 23.8966 21.94V23.0945C23.8966 24.2055 22.9668 25 21.9507 25H10.9459C9.94345 25 9 24.2117 9 23.0945V21.94C9 20.8228 9.94345 20.0345 10.9459 20.0345H11.4623ZM19.1117 13.9319C18.7517 13.3081 18.0577 13.035 17.5624 13.3211C17.0671 13.6066 16.9572 14.344 17.3172 14.9678C17.6772 15.591 18.3706 15.8647 18.8659 15.5786C19.3618 15.2924 19.4717 14.555 19.1117 13.9319ZM21.9507 23.7586C22.3436 23.7586 22.6552 23.4588 22.6552 23.0945V21.94C22.6552 21.5757 22.3374 21.2759 21.9507 21.2759H10.9459C10.5592 21.2759 10.2414 21.5757 10.2414 21.94V23.0945C10.2414 23.4588 10.5592 23.7586 10.9459 23.7586H21.9507Z" fill="white"/>
</svg>
